<?xml version="1.0" encoding="utf-8"?>
<!-- Generator: Adobe Illustrator 19.2.1, SVG Export Plug-In . SVG Version: 6.00 Build 0)  -->
<svg version="1.1" id="Layer_1" xmlns="http://www.w3.org/2000/svg" xmlns:xlink="http://www.w3.org/1999/xlink" x="0px" y="0px"
	 viewBox="0 0 30 30" style="enable-background:new 0 0 30 30;" xml:space="preserve">
<style type="text/css">
	.st0{fill:#E73529;}
	.st1{fill:#FFFFFF;}
</style>
<g>
	<path class="st0" d="M0,25.8h5.9c-0.4,0.5-0.6,1.2-0.6,1.9H2.4L0,27.1V25.8z M30,22.5v5.2h-2.5c0-0.1,0-0.1,0-0.2
		c0-0.4-0.1-0.8-0.3-1.2c-0.5-1-1.6-1.7-2.8-1.7c-1.7,0-3.1,1.4-3.1,3.1h-9.7c0-0.7-0.2-1.3-0.6-1.9h9.3V15h5.2v1.2l1.7,5L30,22.5z
		 M25.8,21.3l-1.2-3.7h-2.9v3.7H25.8z M10.7,27.7c0,1.3-1,2.3-2.3,2.3c-1.3,0-2.3-1-2.3-2.3c0-1.3,1-2.3,2.3-2.3
		C9.7,25.4,10.7,26.4,10.7,27.7z M9.6,27.7c0-0.7-0.6-1.2-1.2-1.2c-0.7,0-1.3,0.6-1.3,1.2c0,0.7,0.6,1.2,1.3,1.2
		C9.1,29,9.6,28.4,9.6,27.7z M26.7,27.7c0,1.3-1,2.3-2.3,2.3c-1.3,0-2.3-1-2.3-2.3c0-1.3,1-2.3,2.3-2.3
		C25.6,25.4,26.7,26.4,26.7,27.7z M25.6,27.7c0-0.7-0.6-1.2-1.2-1.2c-0.7,0-1.2,0.6-1.2,1.2c0,0.7,0.6,1.2,1.2,1.2
		C25.1,29,25.6,28.4,25.6,27.7z M19.1,13.4H0v11.7h19.1V13.4z"/>
</g>
<g>
	<polygon class="st1" points="13.3,17.6 10,17.6 10,14.4 6.8,14.4 6.8,17.6 3.5,17.6 3.5,20.9 6.8,20.9 6.8,24.1 10,24.1 10,20.9 
		13.3,20.9 	"/>
</g>
</svg>
