<svg id="Layer_1" data-name="Layer 1" xmlns="http://www.w3.org/2000/svg" viewBox="0 0 30 30"><defs><style>.cls-1{fill:#e73529;}</style></defs><title>drinking_water</title><path class="cls-1" d="M8.72,10.68H21.28c0,0.08,0,.15,0,0.23v1.69H8.69V10.92C8.69,10.84,8.72,10.76,8.72,10.68Zm0,5.85H21.3V14.61H8.69v1.92Zm9-11.89V2.39h0.49A0.86,0.86,0,0,0,19,1.49V0.87A0.86,0.86,0,0,0,18.14,0H11.86A0.86,0.86,0,0,0,11,.87V1.49a0.86,0.86,0,0,0,.81.91h0.53V4.65A6.4,6.4,0,0,0,9.7,7.2a7.11,7.11,0,0,0-.63,1.48H21A6.15,6.15,0,0,0,17.65,4.65Zm-9,22.95S8.49,30,10.7,30h8.08a2.42,2.42,0,0,0,2.52-2.73V18.54H8.69V27.6Z"/></svg>