<svg id="Layer_1" data-name="Layer 1" xmlns="http://www.w3.org/2000/svg" viewBox="0 0 30 30"><defs><style>.cls-1{fill:#e73529;}</style></defs><title>food</title><path class="cls-1" d="M30,17.57h0a16.56,16.56,0,0,1-2,6.82S25.22,30,16.56,30,5.08,24.44,5.08,24.44a16.5,16.5,0,0,1-1.95-6.87h0c0-.06,0-0.12,0-0.18a3.82,3.82,0,0,1,1.79-2.92l1.21,0.77a2.17,2.17,0,0,0-1.18,1.65c0,2.09,5.2,3.79,11.61,3.79S28.16,19,28.16,16.91c0-1.45-2.49-2.71-6.15-3.35L22,12c4.68,0.92,8,3,8,5.35C30,17.45,30,17.51,30,17.57Zm-22.38-9a2.51,2.51,0,0,0,.33,1.7,3.84,3.84,0,0,0,1.46,1.42,3.83,3.83,0,0,0-.48-1.84,5.1,5.1,0,0,0-1.2-1.41,24,24,0,0,0-2.4-2.81L3.67,3.9S4.26,4.59,5.24,5.66A26.19,26.19,0,0,1,7.59,8.56Zm4.11,9A7.42,7.42,0,0,0,13.48,19a6.16,6.16,0,0,0,2.36.69,4.16,4.16,0,0,0-1.76-1.88,3.12,3.12,0,0,0-2.21-.37C10.36,16.56,9.06,15.67,8,15c-1.49-.92-2.46-1.39-2.46-1.39S6.5,14.15,8,15.11C9,15.78,10.21,16.69,11.7,17.59Zm0.89-4.81a2.86,2.86,0,0,0,.09,2,4.42,4.42,0,0,0,1.47,1.9,4.48,4.48,0,0,0-.23-2.23,6.09,6.09,0,0,0-1.18-1.85A25.92,25.92,0,0,0,10.39,9L8.71,6.7,10.29,9A28.77,28.77,0,0,1,12.59,12.77ZM9.78,15.18a6.94,6.94,0,0,0,1.69,1.29,5.71,5.71,0,0,0,2.21.59A3.91,3.91,0,0,0,12,15.35,2.91,2.91,0,0,0,9.93,15c-1.42-.79-2.65-1.61-3.63-2.2C4.9,12,4,11.58,4,11.58s0.88,0.47,2.26,1.35C7.19,13.54,8.37,14.37,9.78,15.18Zm-2-2.37A6.32,6.32,0,0,0,9.35,14a5.27,5.27,0,0,0,2.05.51,3.64,3.64,0,0,0-1.58-1.54,2.73,2.73,0,0,0-1.91-.25c-1.33-.71-2.48-1.46-3.39-2C3.2,9.93,2.35,9.55,2.36,9.54S3.18,10,4.47,10.77C5.35,11.32,6.46,12.08,7.77,12.81ZM5.72,9.35A3.09,3.09,0,0,0,7.18,10,2.13,2.13,0,0,0,6.5,8.53,2.32,2.32,0,0,0,5.05,8,42.38,42.38,0,0,0,.13,4.35L0,4.28a62.16,62.16,0,0,1,5,3.9A2.33,2.33,0,0,0,5.72,9.35Zm0,1.12a5.67,5.67,0,0,0,1.48,1.05A4.72,4.72,0,0,0,9,12a3.45,3.45,0,0,0-1.48-1.39,2.57,2.57,0,0,0-1.77-.22C4.57,9.71,3.52,9,2.66,8.55c-1.21-.7-2-1-2-1s0.77,0.38,2,1.12C3.44,9.12,4.46,9.82,5.68,10.47Zm4.48,0.13a2.65,2.65,0,0,0,.22,1.87,4.1,4.1,0,0,0,1.48,1.66,4.23,4.23,0,0,0-.36-2,5.76,5.76,0,0,0-1.2-1.63A25,25,0,0,0,7.9,7.22l-1.67-2,1.59,2A27.19,27.19,0,0,1,10.16,10.6Zm9.26,2.27a2.57,2.57,0,0,0-.81,1.59,3.77,3.77,0,0,0,.28,2.05,4,4,0,0,0,.8-1.79,5.25,5.25,0,0,0-.09-1.89A21.82,21.82,0,0,0,19.39,9c-0.18-1.49-.31-2.41-0.31-2.41L19.3,9A23.93,23.93,0,0,1,19.42,12.86Zm-0.85-2.45a2.38,2.38,0,0,0-.65,1.53,3.49,3.49,0,0,0,.39,1.88,3.71,3.71,0,0,0,.62-1.71,4.88,4.88,0,0,0-.2-1.75,20.67,20.67,0,0,0-.41-3.48L17.92,4.68,18.25,6.9A22.9,22.9,0,0,1,18.58,10.41Zm-1-2.4a2.19,2.19,0,0,0-.5,1.44,3.21,3.21,0,0,0,.48,1.71A3.52,3.52,0,0,0,18,9.55,4.51,4.51,0,0,0,17.73,8a19.23,19.23,0,0,0-.58-3.17l-0.5-2,0.42,2A21.73,21.73,0,0,1,17.59,8Zm1.74,11.21a4.23,4.23,0,0,0,1-1.86,5.56,5.56,0,0,0,0-2,22.49,22.49,0,0,0,0-4.07c-0.1-1.61-.19-2.61-0.19-2.61l0.09,2.61a24.7,24.7,0,0,1-.11,4.11,2.8,2.8,0,0,0-1,1.65A4.08,4.08,0,0,0,19.33,19.22ZM14.4,6.44a4.33,4.33,0,0,0,.69,1.26,3.62,3.62,0,0,0,1.21,1,2.7,2.7,0,0,0-.57-1.51,2,2,0,0,0-1.2-.74C13.87,5.51,13.35,4.67,12.9,4c-0.63-.92-1.08-1.42-1.07-1.43s0.42,0.53,1,1.47C13.26,4.71,13.75,5.56,14.4,6.44Zm0.42-.81a2.36,2.36,0,0,0,.83,1,1.74,1.74,0,0,0,0-1.31,1.79,1.79,0,0,0-.85-0.88A33.11,33.11,0,0,0,12.56.11L12.51,0a48,48,0,0,1,2.22,4.51A1.86,1.86,0,0,0,14.82,5.63Zm1,4.59a4.05,4.05,0,0,0,1.3,1,2.84,2.84,0,0,0-.6-1.65,2.1,2.1,0,0,0-1.29-.82c-0.71-1-1.27-1.89-1.75-2.58-0.68-1-1.15-1.56-1.15-1.56s0.44,0.59,1.09,1.6c0.44,0.7,1,1.62,1.66,2.59A5.05,5.05,0,0,0,15.81,10.22Zm0.64-4.55A2.07,2.07,0,0,0,16.1,7a3,3,0,0,0,.55,1.53A3.13,3.13,0,0,0,17,7a4,4,0,0,0-.37-1.43,19,19,0,0,0-.73-2.86L15.27,1s0.18,0.7.51,1.81A21.17,21.17,0,0,1,16.46,5.67Zm-0.76,5.58a5.23,5.23,0,0,0,.76,1.5,4.36,4.36,0,0,0,1.39,1.16,3.1,3.1,0,0,0-.61-1.8,2.25,2.25,0,0,0-1.38-.91C15.1,10.15,14.51,9.14,14,8.39c-0.72-1.08-1.23-1.69-1.22-1.7s0.47,0.64,1.15,1.74C14.41,9.19,15,10.19,15.69,11.25Zm-7.27,6.6s0.83,0.47,2.12,1.39l0.28,0.06A27.76,27.76,0,0,0,8.43,17.85Zm10.34,1.82a3,3,0,0,0-.6-0.7C18.1,18.78,18,18.61,18,18.45a6.81,6.81,0,0,0,1,.8V19.18c0.06,0.18.1,0.36,0.16,0.54l0.25,0c-0.15-.52-0.32-1-0.5-1.5a3.35,3.35,0,0,0-.34-0.84C18.36,17,18.2,16.62,18,16.28c0.2,0.13.36,0.22,0.44,0.29a3.28,3.28,0,0,0-.6-2,2.39,2.39,0,0,0-1.11-.89l-1-2s0.33,0.72.9,1.94l-0.24-.07c-0.78-1.15-1.4-2.24-1.93-3.06-0.75-1.17-1.29-1.83-1.28-1.84s0.5,0.69,1.21,1.89c0.49,0.82,1.07,1.91,1.83,3.05A5.78,5.78,0,0,0,17,15.28a3.94,3.94,0,0,0,.73.78L18,16.69A2.55,2.55,0,0,0,16.84,16l-0.25-.4c-0.5-1.08-1-2-1.5-2.84C14.09,11,13.44,10,13.45,10L15,12.83l0.36,0.69-0.48-.8c-0.78-1.26-1.34-2-1.34-2s0.52,0.74,1.26,2c0.43,0.76.93,1.73,1.56,2.77,0.27,0.61.54,1.26,0.76,1.94a4.53,4.53,0,0,0-.2.52c-0.69-1.18-1.25-2.27-1.75-3.11-0.16-.28-0.31-0.52-0.45-0.75a30.66,30.66,0,0,0-1.93-3.31c-1-1.57-1.67-2.53-1.67-2.53l1.57,2.58a29.69,29.69,0,0,1,2.23,4.2,3.1,3.1,0,0,0,0,2.2,4.78,4.78,0,0,0,1.44,2.15,5,5,0,0,0,0-2.2q0.27,0.51.57,1a3.46,3.46,0,0,0,0,1.55c0.65,0,1.29,0,1.92-.07ZM9.64,17.24C8.06,16.23,7,15.72,7,15.72s1,0.56,2.53,1.62c0.89,0.62,2,1.43,3.24,2.26l0.47,0C11.86,18.76,10.64,17.89,9.64,17.24ZM21,17.87a23.64,23.64,0,0,0,.27-4.37l-0.06-2.81s0,1.07,0,2.8a25.76,25.76,0,0,1-.37,4.39,3.06,3.06,0,0,0-1.17,1.69l0,0.1c0.45,0,.89-0.09,1.32-0.15A6.71,6.71,0,0,0,21,17.87Z"/></svg>