<?xml version="1.0" encoding="utf-8"?>
<!-- Generator: Adobe Illustrator 19.2.1, SVG Export Plug-In . SVG Version: 6.00 Build 0)  -->
<svg version="1.1" id="Layer_1" xmlns="http://www.w3.org/2000/svg" xmlns:xlink="http://www.w3.org/1999/xlink" x="0px" y="0px"
	 viewBox="0 0 30 30" style="enable-background:new 0 0 30 30;" xml:space="preserve">
<style type="text/css">
	.st0{fill:#E73529;}
</style>
<path class="st0" d="M15.1,11c-1-1-7-4.4-15.1-0.9c0,0.1,0,1,0,2.5v16.8h12.4c0.4,0.4,1.4,0.6,2.6,0.6c1.2,0,2.2-0.3,2.6-0.6H30
	V12.6c0-1.5,0-2.5,0-2.5C22.2,6.7,15.9,10.3,15.1,11z M14,28.2c0-0.7-5.8-4.5-12.5-0.3V11.5c1.3-0.8,3.1-1.2,5.1-1.2
	c4.1,0,7.4,1.3,7.4,3.8V28.2z M28.5,27.9c-6.7-4.2-12.5-0.4-12.5,0.3v-14c0-2.5,3.3-3.8,7.4-3.8c2,0,3.8,0.5,5.1,1.2V27.9z"/>
</svg>
