<?xml version="1.0" encoding="utf-8"?>
<!-- Generator: Adobe Illustrator 19.2.1, SVG Export Plug-In . SVG Version: 6.00 Build 0)  -->
<svg version="1.1" id="Layer_1" xmlns="http://www.w3.org/2000/svg" xmlns:xlink="http://www.w3.org/1999/xlink" x="0px" y="0px"
	 viewBox="0 0 30 30" style="enable-background:new 0 0 30 30;" xml:space="preserve">
<style type="text/css">
	.st0{fill:#E73529;}
</style>
<path class="st0" d="M25.1,13.3l4.9-2.7L28.9,10L20,5.1l-4.9,2.7L10,5l-10,5.4l1.1,0.6L5,13.2l0,0h0v0l-4.8,2.6L5,18.5V25L15,30
	l10.1-5v-6.5l4.9-2.6L25.1,13.3z M20,6.6l7.2,3.9l-3.5,1.9l-7.3-3.9L20,6.6z M2.9,10.5L10,6.6l3.6,1.9l-7.3,3.9L2.9,10.5z M3,15.9
	l3.6-1.9l7.3,3.9l-3.6,1.9L3,15.9z M6.3,24.2v-4.9l3.9,2.1l4.1-2.3v9.1L6.3,24.2z M23.7,24.2l-8,4V19l4.1,2.3l3.9-2.1V24.2z
	 M27.1,15.9l-7.3,3.9l-3.5-1.9l7.2-3.9L27.1,15.9z"/>
</svg>
