<svg id="Layer_1" data-name="Layer 1" xmlns="http://www.w3.org/2000/svg" viewBox="0 0 30 30"><defs><style>.cls-1{fill:#e73529;}</style></defs><title>medical_screening</title><path class="cls-1" d="M24.5,18.88a1.12,1.12,0,0,0-1,.6l-1.62,3.05-2-5.84a1.13,1.13,0,0,0-2.1-.07l-1.37,3.25L14.26,6.93A1.13,1.13,0,0,0,13.13,6,1.08,1.08,0,0,0,12,6.93l-1.91,15L8.58,13.88a1.13,1.13,0,0,0-2.12-.27L3.93,18.88H0v2.25H4.64a1.13,1.13,0,0,0,1-.64L7,17.66,9.21,29.09a1.12,1.12,0,0,0,1.1.91h0a1.13,1.13,0,0,0,1.09-1l1.88-14.76L14.88,24a1.12,1.12,0,0,0,2.14.24l1.69-4,1.88,5.51a1.13,1.13,0,0,0,1,.76,1.14,1.14,0,0,0,1.08-.59l2.52-4.75H30V18.88H24.5Z"/></svg>