<?xml version="1.0" encoding="utf-8"?>
<!-- Generator: Adobe Illustrator 19.2.1, SVG Export Plug-In . SVG Version: 6.00 Build 0)  -->
<svg version="1.1" id="Layer_1" xmlns="http://www.w3.org/2000/svg" xmlns:xlink="http://www.w3.org/1999/xlink" x="0px" y="0px"
	 viewBox="0 0 30 30" style="enable-background:new 0 0 30 30;" xml:space="preserve">
<style type="text/css">
	.st0{fill:#E73529;}
</style>
<path class="st0" d="M7.5,14c0,1.9-1.5,3.4-3.4,3.4c-1.9,0-3.4-1.5-3.4-3.4c0-1.9,1.5-3.4,3.4-3.4C5.9,10.5,7.5,12.1,7.5,14z
	 M22.5,14c0,1.9,1.5,3.4,3.4,3.4c1.9,0,3.4-1.5,3.4-3.4c0-1.9-1.5-3.4-3.4-3.4C24.1,10.5,22.5,12.1,22.5,14z M13.1,25.8
	c-0.1-0.7,0.2-1.4,0.7-1.9c-2.9-0.6-4.1-2-5.1-3.3C8.1,20,7.7,19.4,7,19c0,0,0,0-0.1,0c-0.5-0.4-1.2-0.7-2-0.7H3.1
	c-1.7,0-3.1,1.4-3.1,3.1V30h8.1v-5.6c1.2,1,2.9,2,5.4,2.4C13.3,26.5,13.1,26.2,13.1,25.8z M26.9,18.2H25c-0.8,0-1.4,0.3-2,0.7
	c0,0,0,0-0.1,0c-0.6,0.4-1.1,1-1.6,1.6c-1.1,1.4-2.4,3-6,3.4c-0.8,0.1-1.4,0.8-1.3,1.6c0.1,0.8,0.7,1.3,1.5,1.3c0.1,0,0.1,0,0.2,0
	c3.1-0.3,4.9-1.4,6.2-2.6V30H30v-8.7C30,19.6,28.6,18.2,26.9,18.2z"/>
</svg>
