<?xml version="1.0" encoding="utf-8"?>
<!-- Generator: Adobe Illustrator 19.2.1, SVG Export Plug-In . SVG Version: 6.00 Build 0)  -->
<svg version="1.1" id="Layer_1" xmlns="http://www.w3.org/2000/svg" xmlns:xlink="http://www.w3.org/1999/xlink" x="0px" y="0px"
	 viewBox="0 0 30 30" style="enable-background:new 0 0 30 30;" xml:space="preserve">
<style type="text/css">
	.st0{fill:#E73529;}
</style>
<path class="st0" d="M27.8,27.4V11.6h-4.7v15.7h-1.2V15.9h-4.1v11.5H0V30h30v-2.6H27.8z M19.3,17.9h-0.9v-1.2h0.9V17.9z M21.3,17.9
	h-0.9v-1.2h0.9V17.9z M25.1,15.3h-1.5v-1h1.5V15.3z M25.1,13.7h-1.5v-1h1.5V13.7z M27.3,15.3h-1.5v-1h1.5V15.3z M27.3,13.7h-1.5v-1
	h1.5V13.7z M7.6,24.9v-1.6H0v-3.3h7.6v-1.7l5.8,3.3L7.6,24.9z"/>
</svg>
