<svg id="Layer_1" data-name="Layer 1" xmlns="http://www.w3.org/2000/svg" viewBox="0 0 30 30"><defs><style>.cls-1{fill:#e73529;}</style></defs><title>rfl</title><path class="cls-1" d="M15.35,13.79v-3.1a0.93,0.93,0,1,0-1.07,0v3.08h-6a0.87,0.87,0,0,0-.87.86V29.14A0.87,0.87,0,0,0,8.3,30h6.86A0.86,0.86,0,0,0,16,29.14V14.63A0.86,0.86,0,0,0,15.35,13.79ZM14.7,21.54a0.87,0.87,0,0,1-.86.87H9.48a0.87,0.87,0,0,1-.87-0.87V16.42a0.86,0.86,0,0,1,.87-0.87h4.35a0.87,0.87,0,0,1,.86.87v5.12Zm8.79-12A8.5,8.5,0,0,0,15,1.06h0A8.51,8.51,0,0,0,6.5,9.55h0a0.53,0.53,0,0,1-.53.53H6a0.53,0.53,0,0,1-.52-0.53h0A9.55,9.55,0,0,1,15,0h0a9.55,9.55,0,0,1,9.55,9.55h0a0.53,0.53,0,0,1-.53.53h0a0.53,0.53,0,0,1-.53-0.53h0Zm-2.74,0A5.75,5.75,0,0,0,15,3.8h0A5.75,5.75,0,0,0,9.24,9.55h0a0.53,0.53,0,0,1-.53.53h0a0.53,0.53,0,0,1-.53-0.53h0A6.82,6.82,0,0,1,15,2.74h0A6.82,6.82,0,0,1,21.8,9.55h0a0.53,0.53,0,0,1-.53.53h0a0.53,0.53,0,0,1-.53-0.53h0Zm-2.39,0A3.37,3.37,0,0,0,15,6.18h0a3.37,3.37,0,0,0-3.37,3.36h0a0.53,0.53,0,0,1-.53.53h0a0.53,0.53,0,0,1-.53-0.53h0A4.42,4.42,0,0,1,15,5.13h0a4.43,4.43,0,0,1,4.42,4.42h0a0.53,0.53,0,0,1-.53.53h0a0.53,0.53,0,0,1-.53-0.53h0Z"/></svg>