<?xml version="1.0" encoding="utf-8"?>
<!-- Generator: Adobe Illustrator 19.2.1, SVG Export Plug-In . SVG Version: 6.00 Build 0)  -->
<svg version="1.1" id="Layer_1" xmlns="http://www.w3.org/2000/svg" xmlns:xlink="http://www.w3.org/1999/xlink" x="0px" y="0px"
	 viewBox="0 0 30 30" style="enable-background:new 0 0 30 30;" xml:space="preserve">
<style type="text/css">
	.st0{fill:#E73529;}
</style>
<path class="st0" d="M12.8,18.4c0.3,0.6,1.6,3.7,1.6,4.1c0,2.4-3.3,2.4-3.3,0C11.2,22.1,12.5,18.8,12.8,18.4z M14.7,17
	c0-0.3,0-0.9,0-1.9c0-1.2-1.1-2.2-2.5-2.2c0,0,0,0-3.4,0l0-1c0-0.3-0.2-0.5-0.5-0.5H7v-0.7c0.1-0.1,0.2-0.2,0.3-0.3
	c0.4,0,1.2,0,2.8,0c0.2,0.2,0.5,0.4,0.8,0.4c0.6,0,1-0.5,1-1c0-0.6-0.5-1-1-1c-0.3,0-0.6,0.2-0.8,0.4c-0.4,0-1.3,0-2.8,0
	C7.1,8.9,6.8,8.8,6.5,8.8S5.9,8.9,5.7,9.2c-0.9,0-1.9,0-3.1,0C2.5,8.9,2.2,8.8,1.9,8.8c-0.6,0-1,0.5-1,1c0,0.6,0.5,1,1,1
	c0.3,0,0.6-0.2,0.8-0.4c0.5,0,1.4,0,3.1,0c0.1,0.1,0.2,0.2,0.3,0.3v0.7H4.6c-0.3,0-0.5,0.2-0.5,0.5v1c-0.3,0-1.3,0-4.1,0v3.3
	c0.1,0,0.8,0,4.5,0c0.4,0.9,1,1.3,1.9,1.3c0.9,0,1.6-0.4,2.1-1.3c0,0,0,0,1.6,0c0.5,0,0.7,0.3,0.7,0.9c-0.1,0.1-0.2,0.3-0.2,0.4
	c0,0.3,0.2,0.5,0.5,0.5h3.4c0.3,0,0.5-0.2,0.5-0.5C15.1,17.3,15,17.1,14.7,17z M15.3,26.4c0,0.2,0,0.5,0,0.7
	c0.1,0.2,0.2,0.4,0.3,0.6c0.5,0.6,1.4,0.6,2,0l2.8-2.7l0.4,0.4L18,28.1c-0.8,0.7-2,0.7-2.7,0c-0.3-0.3-0.4-0.6-0.5-0.9H9
	c-0.8,0-1.4,0.6-1.4,1.4C7.5,29.4,8.2,30,9,30H19c0.3,0,0.6-0.1,0.9-0.3l6.5-5H30v-4.9h0v0h-8.3l-6.1,5.9
	C15.5,25.9,15.3,26.2,15.3,26.4z"/>
</svg>
